<?xml version='1.0' encoding='UTF-8'?>
<svg width="37mm" height="37mm" version="1.1" viewBox="0 0 37 37"
    xmlns="http://www.w3.org/2000/svg">
    <style>
	#qr-path {
		fill: black;
	}
	@media (prefers-color-scheme: dark) {
		#qr-path {
			fill: white;
		}
	}
	</style>
    <path d="M4,4H5V5H4zM5,4H6V5H5zM6,4H7V5H6zM7,4H8V5H7zM8,4H9V5H8zM9,4H10V5H9zM10,4H11V5H10zM14,4H15V5H14zM17,4H18V5H17zM18,4H19V5H18zM21,4H22V5H21zM22,4H23V5H22zM23,4H24V5H23zM26,4H27V5H26zM27,4H28V5H27zM28,4H29V5H28zM29,4H30V5H29zM30,4H31V5H30zM31,4H32V5H31zM32,4H33V5H32zM4,5H5V6H4zM10,5H11V6H10zM14,5H15V6H14zM17,5H18V6H17zM18,5H19V6H18zM19,5H20V6H19zM20,5H21V6H20zM26,5H27V6H26zM32,5H33V6H32zM4,6H5V7H4zM6,6H7V7H6zM7,6H8V7H7zM8,6H9V7H8zM10,6H11V7H10zM12,6H13V7H12zM14,6H15V7H14zM18,6H19V7H18zM20,6H21V7H20zM26,6H27V7H26zM28,6H29V7H28zM29,6H30V7H29zM30,6H31V7H30zM32,6H33V7H32zM4,7H5V8H4zM6,7H7V8H6zM7,7H8V8H7zM8,7H9V8H8zM10,7H11V8H10zM12,7H13V8H12zM14,7H15V8H14zM15,7H16V8H15zM16,7H17V8H16zM17,7H18V8H17zM18,7H19V8H18zM19,7H20V8H19zM21,7H22V8H21zM24,7H25V8H24zM26,7H27V8H26zM28,7H29V8H28zM29,7H30V8H29zM30,7H31V8H30zM32,7H33V8H32zM4,8H5V9H4zM6,8H7V9H6zM7,8H8V9H7zM8,8H9V9H8zM10,8H11V9H10zM12,8H13V9H12zM13,8H14V9H13zM14,8H15V9H14zM15,8H16V9H15zM16,8H17V9H16zM17,8H18V9H17zM20,8H21V9H20zM23,8H24V9H23zM24,8H25V9H24zM26,8H27V9H26zM28,8H29V9H28zM29,8H30V9H29zM30,8H31V9H30zM32,8H33V9H32zM4,9H5V10H4zM10,9H11V10H10zM12,9H13V10H12zM14,9H15V10H14zM16,9H17V10H16zM17,9H18V10H17zM19,9H20V10H19zM22,9H23V10H22zM26,9H27V10H26zM32,9H33V10H32zM4,10H5V11H4zM5,10H6V11H5zM6,10H7V11H6zM7,10H8V11H7zM8,10H9V11H8zM9,10H10V11H9zM10,10H11V11H10zM12,10H13V11H12zM14,10H15V11H14zM16,10H17V11H16zM18,10H19V11H18zM20,10H21V11H20zM22,10H23V11H22zM24,10H25V11H24zM26,10H27V11H26zM27,10H28V11H27zM28,10H29V11H28zM29,10H30V11H29zM30,10H31V11H30zM31,10H32V11H31zM32,10H33V11H32zM12,11H13V12H12zM13,11H14V12H13zM22,11H23V12H22zM4,12H5V13H4zM6,12H7V13H6zM7,12H8V13H7zM8,12H9V13H8zM9,12H10V13H9zM10,12H11V13H10zM13,12H14V13H13zM14,12H15V13H14zM15,12H16V13H15zM17,12H18V13H17zM18,12H19V13H18zM19,12H20V13H19zM20,12H21V13H20zM21,12H22V13H21zM24,12H25V13H24zM26,12H27V13H26zM27,12H28V13H27zM28,12H29V13H28zM29,12H30V13H29zM30,12H31V13H30zM4,13H5V14H4zM6,13H7V14H6zM9,13H10V14H9zM17,13H18V14H17zM20,13H21V14H20zM23,13H24V14H23zM24,13H25V14H24zM25,13H26V14H25zM27,13H28V14H27zM28,13H29V14H28zM32,13H33V14H32zM4,14H5V15H4zM5,14H6V15H5zM7,14H8V15H7zM8,14H9V15H8zM9,14H10V15H9zM10,14H11V15H10zM13,14H14V15H13zM14,14H15V15H14zM17,14H18V15H17zM18,14H19V15H18zM19,14H20V15H19zM20,14H21V15H20zM21,14H22V15H21zM22,14H23V15H22zM24,14H25V15H24zM25,14H26V15H25zM28,14H29V15H28zM5,15H6V16H5zM7,15H8V16H7zM8,15H9V16H8zM9,15H10V16H9zM12,15H13V16H12zM14,15H15V16H14zM15,15H16V16H15zM16,15H17V16H16zM18,15H19V16H18zM20,15H21V16H20zM22,15H23V16H22zM24,15H25V16H24zM25,15H26V16H25zM27,15H28V16H27zM28,15H29V16H28zM31,15H32V16H31zM5,16H6V17H5zM6,16H7V17H6zM8,16H9V17H8zM10,16H11V17H10zM13,16H14V17H13zM15,16H16V17H15zM17,16H18V17H17zM18,16H19V17H18zM21,16H22V17H21zM23,16H24V17H23zM27,16H28V17H27zM29,16H30V17H29zM30,16H31V17H30zM31,16H32V17H31zM4,17H5V18H4zM6,17H7V18H6zM7,17H8V18H7zM12,17H13V18H12zM14,17H15V18H14zM15,17H16V18H15zM16,17H17V18H16zM17,17H18V18H17zM20,17H21V18H20zM21,17H22V18H21zM22,17H23V18H22zM23,17H24V18H23zM24,17H25V18H24zM25,17H26V18H25zM26,17H27V18H26zM27,17H28V18H27zM28,17H29V18H28zM30,17H31V18H30zM32,17H33V18H32zM4,18H5V19H4zM6,18H7V19H6zM8,18H9V19H8zM10,18H11V19H10zM13,18H14V19H13zM14,18H15V19H14zM16,18H17V19H16zM19,18H20V19H19zM21,18H22V19H21zM25,18H26V19H25zM30,18H31V19H30zM4,19H5V20H4zM5,19H6V20H5zM9,19H10V20H9zM14,19H15V20H14zM16,19H17V20H16zM18,19H19V20H18zM20,19H21V20H20zM26,19H27V20H26zM28,19H29V20H28zM29,19H30V20H29zM4,20H5V21H4zM6,20H7V21H6zM7,20H8V21H7zM10,20H11V21H10zM13,20H14V21H13zM14,20H15V21H14zM16,20H17V21H16zM17,20H18V21H17zM18,20H19V21H18zM21,20H22V21H21zM23,20H24V21H23zM24,20H25V21H24zM27,20H28V21H27zM29,20H30V21H29zM30,20H31V21H30zM32,20H33V21H32zM4,21H5V22H4zM15,21H16V22H15zM17,21H18V22H17zM23,21H24V22H23zM24,21H25V22H24zM25,21H26V22H25zM26,21H27V22H26zM27,21H28V22H27zM28,21H29V22H28zM31,21H32V22H31zM32,21H33V22H32zM4,22H5V23H4zM6,22H7V23H6zM9,22H10V23H9zM10,22H11V23H10zM11,22H12V23H11zM12,22H13V23H12zM16,22H17V23H16zM17,22H18V23H17zM18,22H19V23H18zM19,22H20V23H19zM20,22H21V23H20zM21,22H22V23H21zM25,22H26V23H25zM26,22H27V23H26zM27,22H28V23H27zM29,22H30V23H29zM30,22H31V23H30zM4,23H5V24H4zM9,23H10V24H9zM14,23H15V24H14zM15,23H16V24H15zM16,23H17V24H16zM22,23H23V24H22zM23,23H24V24H23zM24,23H25V24H24zM25,23H26V24H25zM27,23H28V24H27zM29,23H30V24H29zM31,23H32V24H31zM4,24H5V25H4zM6,24H7V25H6zM7,24H8V25H7zM10,24H11V25H10zM12,24H13V25H12zM14,24H15V25H14zM19,24H20V25H19zM20,24H21V25H20zM21,24H22V25H21zM23,24H24V25H23zM24,24H25V25H24zM25,24H26V25H25zM26,24H27V25H26zM27,24H28V25H27zM28,24H29V25H28zM29,24H30V25H29zM30,24H31V25H30zM31,24H32V25H31zM32,24H33V25H32zM12,25H13V26H12zM13,25H14V26H13zM14,25H15V26H14zM15,25H16V26H15zM16,25H17V26H16zM17,25H18V26H17zM20,25H21V26H20zM21,25H22V26H21zM22,25H23V26H22zM24,25H25V26H24zM28,25H29V26H28zM29,25H30V26H29zM32,25H33V26H32zM4,26H5V27H4zM5,26H6V27H5zM6,26H7V27H6zM7,26H8V27H7zM8,26H9V27H8zM9,26H10V27H9zM10,26H11V27H10zM15,26H16V27H15zM16,26H17V27H16zM17,26H18V27H17zM18,26H19V27H18zM19,26H20V27H19zM22,26H23V27H22zM23,26H24V27H23zM24,26H25V27H24zM26,26H27V27H26zM28,26H29V27H28zM29,26H30V27H29zM4,27H5V28H4zM10,27H11V28H10zM12,27H13V28H12zM13,27H14V28H13zM16,27H17V28H16zM17,27H18V28H17zM24,27H25V28H24zM28,27H29V28H28zM29,27H30V28H29zM4,28H5V29H4zM6,28H7V29H6zM7,28H8V29H7zM8,28H9V29H8zM10,28H11V29H10zM12,28H13V29H12zM14,28H15V29H14zM18,28H19V29H18zM19,28H20V29H19zM20,28H21V29H20zM21,28H22V29H21zM24,28H25V29H24zM25,28H26V29H25zM26,28H27V29H26zM27,28H28V29H27zM28,28H29V29H28zM29,28H30V29H29zM30,28H31V29H30zM31,28H32V29H31zM32,28H33V29H32zM4,29H5V30H4zM6,29H7V30H6zM7,29H8V30H7zM8,29H9V30H8zM10,29H11V30H10zM12,29H13V30H12zM13,29H14V30H13zM20,29H21V30H20zM22,29H23V30H22zM31,29H32V30H31zM32,29H33V30H32zM4,30H5V31H4zM6,30H7V31H6zM7,30H8V31H7zM8,30H9V31H8zM10,30H11V31H10zM12,30H13V31H12zM13,30H14V31H13zM14,30H15V31H14zM15,30H16V31H15zM16,30H17V31H16zM18,30H19V31H18zM19,30H20V31H19zM20,30H21V31H20zM23,30H24V31H23zM25,30H26V31H25zM26,30H27V31H26zM27,30H28V31H27zM28,30H29V31H28zM31,30H32V31H31zM4,31H5V32H4zM10,31H11V32H10zM16,31H17V32H16zM17,31H18V32H17zM19,31H20V32H19zM20,31H21V32H20zM22,31H23V32H22zM23,31H24V32H23zM24,31H25V32H24zM25,31H26V32H25zM28,31H29V32H28zM29,31H30V32H29zM31,31H32V32H31zM4,32H5V33H4zM5,32H6V33H5zM6,32H7V33H6zM7,32H8V33H7zM8,32H9V33H8zM9,32H10V33H9zM10,32H11V33H10zM12,32H13V33H12zM13,32H14V33H13zM16,32H17V33H16zM19,32H20V33H19zM21,32H22V33H21zM23,32H24V33H23zM28,32H29V33H28zM29,32H30V33H29zM30,32H31V33H30z" id="qr-path" fill="#000000" fill-opacity="1" fill-rule="nonzero" stroke="none" />
</svg>