<?xml version="1.0" standalone="no"?>
<!DOCTYPE svg PUBLIC "-//W3C//DTD SVG 20010904//EN"
 "http://www.w3.org/TR/2001/REC-SVG-20010904/DTD/svg10.dtd">
<svg version="1.0" xmlns="http://www.w3.org/2000/svg"
 width="2000.000000pt" height="2000.000000pt" viewBox="0 0 2000.000000 2000.000000"
 preserveAspectRatio="xMidYMid meet">
<metadata>
Created by potrace 1.14, written by Peter Selinger 2001-2017
</metadata>
<g transform="translate(0.000000,2000.000000) scale(0.100000,-0.100000)"
fill="#000000" stroke="none">
<path d="M2325 19363 c6 -141 15 -281 20 -330 3 -24 7 -62 10 -85 2 -24 7 -74
10 -113 4 -38 8 -77 10 -85 2 -8 7 -40 10 -70 3 -30 10 -80 15 -110 5 -30 14
-86 20 -125 7 -38 18 -101 25 -140 8 -38 16 -83 19 -100 3 -16 8 -41 11 -55 3
-14 8 -38 11 -55 2 -16 10 -48 16 -70 5 -22 12 -49 14 -60 17 -90 75 -312 130
-500 73 -250 221 -682 274 -800 5 -11 34 -81 64 -155 212 -523 511 -1104 843
-1639 184 -296 359 -556 567 -841 106 -145 320 -426 336 -440 3 -3 18 -23 35
-45 31 -43 197 -244 255 -310 19 -23 58 -68 85 -100 28 -33 68 -80 90 -105 22
-24 56 -62 75 -84 33 -37 98 -109 195 -215 451 -493 1099 -1100 1645 -1541 58
-47 107 -87 110 -90 19 -21 479 -370 585 -444 39 -28 72 -52 75 -56 3 -3 16
-13 30 -22 14 -10 61 -42 105 -73 265 -187 890 -588 1083 -695 23 -13 42 -26
42 -30 0 -3 -27 -26 -61 -50 -33 -25 -66 -49 -72 -55 -44 -37 -204 -152 -357
-257 -455 -310 -1013 -609 -1465 -785 -49 -19 -99 -39 -110 -44 -28 -12 -205
-76 -290 -104 -141 -46 -474 -145 -489 -145 -1 0 -4 -49 -5 -110 l-2 -109 38
4 c21 2 72 6 113 10 41 3 86 8 100 10 14 2 48 6 75 10 81 9 208 26 235 30 14
2 84 14 155 25 223 36 588 113 790 166 55 14 107 27 115 29 119 27 615 184
810 257 185 69 264 100 295 113 17 7 69 29 116 48 147 61 717 312 853 376 71
34 133 61 137 61 5 0 75 -31 157 -69 275 -129 899 -397 1097 -473 380 -145
993 -334 1245 -384 14 -3 41 -9 60 -14 19 -5 46 -11 60 -14 14 -2 61 -12 105
-21 44 -9 89 -19 100 -21 11 -2 34 -7 50 -10 17 -4 39 -8 50 -10 11 -1 58 -9
105 -18 96 -18 128 -23 185 -31 22 -3 69 -10 105 -15 143 -21 286 -38 366 -45
32 -3 78 -7 102 -11 41 -5 42 -4 43 23 4 71 -2 188 -8 193 -5 4 -64 22 -133
40 -227 60 -672 213 -859 296 -20 9 -49 22 -66 29 -241 104 -572 271 -780 392
-33 20 -73 43 -90 53 -142 81 -426 269 -628 415 -75 55 -150 109 -165 120 -15
11 -49 38 -75 59 -43 35 -46 41 -30 49 67 36 309 183 311 189 2 4 8 8 13 8 18
0 472 294 729 473 109 76 458 328 490 354 8 6 101 78 205 159 105 81 192 149
195 153 3 3 39 33 80 66 108 86 251 205 277 229 11 12 40 37 64 56 23 19 47
40 53 45 6 6 45 39 86 75 41 36 93 81 115 102 22 20 54 48 70 63 213 192 701
673 895 881 188 201 307 333 410 454 35 41 69 80 74 86 23 24 102 118 116 138
8 12 20 27 28 35 33 34 405 507 457 581 11 16 75 104 141 197 144 200 281 402
408 602 90 142 265 431 279 461 4 8 17 31 29 50 56 93 193 348 299 560 234
468 408 886 565 1360 20 58 37 112 39 120 2 8 22 76 45 150 43 141 113 408
149 570 20 90 25 112 36 170 3 14 7 36 10 50 18 92 51 289 61 365 3 22 9 63
14 90 5 28 12 79 15 115 3 36 7 79 10 95 2 17 6 66 10 110 4 44 8 96 10 115 6
65 17 340 13 340 -1 0 -84 -32 -183 -71 -99 -38 -184 -72 -190 -73 -15 -4 -48
-17 -70 -27 -11 -4 -144 -56 -295 -114 -151 -59 -313 -121 -360 -140 -216 -84
-270 -105 -276 -105 -3 0 -20 -7 -37 -15 -34 -15 -221 -88 -334 -130 -38 -14
-77 -29 -88 -34 -85 -39 -675 -256 -975 -359 -80 -27 -370 -116 -645 -196
-275 -81 -536 -158 -580 -172 -269 -81 -824 -244 -832 -244 -5 0 -8 -24 -6
-52 4 -78 3 -594 -1 -658 -3 -30 -7 -95 -11 -145 -3 -49 -8 -106 -10 -125 -2
-19 -7 -64 -10 -100 -8 -80 -13 -124 -19 -170 -3 -19 -12 -87 -21 -150 -8 -63
-17 -122 -20 -130 -2 -8 -6 -35 -9 -60 -3 -25 -8 -56 -11 -70 -3 -14 -8 -38
-11 -55 -15 -85 -47 -241 -80 -382 -20 -87 -37 -165 -39 -173 -2 -8 -4 -15 -5
-15 -1 0 -3 -10 -6 -22 -15 -81 -130 -473 -204 -693 -85 -257 -206 -584 -265
-715 -7 -16 -43 -100 -80 -185 -114 -261 -308 -661 -418 -859 -26 -46 -47 -85
-47 -86 0 -8 -240 -412 -330 -555 -370 -590 -809 -1159 -1286 -1666 l-42 -43
-104 112 c-58 61 -139 150 -179 197 -41 47 -78 90 -84 96 -5 6 -30 35 -55 65
-25 29 -61 72 -80 94 -19 23 -47 57 -62 76 -15 19 -37 47 -50 63 -13 16 -41
52 -63 80 -198 249 -500 679 -680 971 -83 134 -215 355 -215 360 0 2 -19 36
-43 77 -90 152 -327 612 -401 778 -103 230 -133 299 -183 420 -30 74 -61 149
-68 165 -72 167 -225 613 -309 895 -103 349 -214 837 -260 1140 -34 227 -44
308 -61 485 -3 33 -8 76 -10 95 -13 107 -20 302 -20 602 l0 337 -35 9 c-19 6
-111 32 -205 60 -259 77 -442 131 -530 157 -44 13 -210 63 -370 110 -159 48
-299 89 -310 92 -11 3 -72 21 -135 40 -63 20 -124 38 -135 40 -81 21 -272 81
-380 119 -345 122 -700 251 -780 285 -16 7 -32 13 -35 13 -3 1 -21 7 -40 15
-19 7 -44 16 -55 21 -11 4 -31 12 -45 18 -22 10 -269 106 -520 202 -41 16
-122 47 -180 70 -58 23 -152 59 -210 81 -58 21 -114 43 -125 48 -11 5 -81 32
-155 61 -160 61 -168 64 -200 78 -40 17 -420 162 -425 162 -2 0 -2 -44 0 -97z"/>
<path d="M2277 6767 c15 -17 39 -43 53 -57 14 -15 55 -60 91 -101 37 -41 82
-90 100 -110 19 -20 72 -78 119 -129 47 -52 112 -122 144 -157 32 -35 66 -72
75 -82 14 -16 138 -152 211 -231 14 -15 61 -67 105 -116 44 -48 105 -115 136
-148 31 -34 73 -80 94 -104 l37 -42 -140 -143 c-78 -78 -198 -200 -268 -272
-263 -271 -820 -840 -849 -867 l-29 -28 540 0 541 0 329 362 c181 200 354 389
384 422 154 167 152 166 164 153 6 -7 49 -55 96 -107 104 -116 86 -96 200
-220 52 -56 103 -112 113 -124 24 -27 67 -75 137 -151 30 -33 93 -103 140
-154 47 -52 103 -114 125 -138 l40 -43 536 2 537 3 -267 272 c-690 706 -855
874 -930 952 l-81 84 42 46 c23 25 58 64 78 85 19 22 46 51 58 65 26 28 181
197 222 241 14 15 61 67 105 115 44 49 85 93 90 99 6 6 80 88 165 181 85 94
157 172 160 175 4 4 187 205 248 271 l24 27 -519 0 c-466 -1 -519 -2 -533 -17
-8 -9 -69 -77 -135 -151 -66 -74 -134 -151 -151 -170 -17 -19 -91 -102 -164
-185 -73 -82 -149 -168 -169 -190 -20 -22 -67 -75 -104 -118 -38 -42 -72 -77
-76 -77 -4 0 -48 46 -98 103 -50 56 -99 111 -110 122 -10 11 -49 56 -88 100
-38 44 -72 82 -75 85 -3 3 -59 66 -125 140 -66 74 -122 137 -125 140 -3 3 -47
53 -98 111 l-93 106 -520 0 -520 0 28 -30z"/>
<path d="M6345 6791 c-2 -4 -4 -593 -4 -1309 l0 -1302 392 2 391 3 0 933 c0
512 2 932 6 932 3 0 26 -35 49 -77 67 -118 443 -791 486 -868 15 -27 68 -121
117 -208 49 -87 102 -182 117 -210 16 -29 38 -69 50 -89 37 -66 56 -99 145
-260 l88 -158 301 0 302 0 90 162 c50 90 95 170 100 180 6 9 20 34 31 55 36
65 250 446 272 485 12 21 38 68 58 105 20 37 54 97 74 133 64 111 282 501 385
687 22 40 42 73 45 73 3 0 5 -422 5 -938 l0 -937 390 -3 390 -2 0 1309 0 1308
-617 0 -618 0 -102 -191 c-56 -105 -112 -209 -125 -231 -12 -22 -30 -56 -40
-75 -9 -19 -37 -71 -61 -114 -24 -44 -78 -143 -119 -220 -42 -78 -92 -170
-111 -206 -19 -36 -53 -99 -75 -140 -22 -41 -82 -151 -132 -245 -51 -93 -103
-189 -115 -213 -13 -24 -26 -40 -30 -35 -9 9 -80 139 -175 318 -32 61 -61 115
-65 120 -4 6 -31 55 -60 110 -29 55 -95 177 -145 270 -51 94 -112 206 -135
250 -23 44 -71 132 -105 195 -34 63 -86 160 -116 215 -29 55 -65 120 -79 145
l-26 45 -612 1 c-337 1 -614 -2 -617 -5z"/>
<path d="M11170 5489 l0 -1309 391 -2 c215 -2 396 0 401 3 7 4 11 120 11 331
l0 325 831 0 c457 0 854 3 881 7 268 39 440 170 544 415 56 133 73 246 74 506
2 252 -4 349 -28 451 -64 278 -222 445 -495 527 -47 14 -107 29 -135 33 -27 3
-59 9 -70 12 -11 3 -557 6 -1212 7 l-1193 3 0 -1309z m2143 636 c69 -23 122
-73 148 -138 23 -59 25 -271 2 -336 -27 -80 -78 -129 -155 -152 -27 -7 -565
-12 -1230 -9 l-106 0 0 328 1 329 641 -2 c602 -1 645 -2 699 -20z"/>
<path d="M14746 6793 c-3 -3 -5 -592 -5 -1309 l-1 -1304 403 0 402 0 0 328 0
327 845 1 c748 2 854 4 924 19 314 66 495 279 551 649 17 114 12 556 -8 663
-54 283 -191 460 -427 550 -80 30 -148 50 -203 58 -27 3 -59 9 -70 12 -27 8
-2404 13 -2411 6z m2109 -658 c48 -13 108 -46 134 -74 50 -53 63 -102 63 -239
-1 -185 -34 -261 -137 -308 l-52 -24 -419 0 c-230 -1 -527 -1 -659 0 l-240 0
1 328 c1 180 2 327 3 328 9 5 1284 -5 1306 -11z"/>
<path d="M12937 3874 c-1 -1 -20 -5 -42 -8 -22 -4 -69 -11 -105 -17 -36 -5
-76 -12 -90 -14 -111 -16 -178 -27 -192 -31 -15 -4 -16 -46 -17 -497 0 -271 0
-495 0 -499 -1 -4 -25 3 -53 16 -246 108 -560 120 -803 29 -264 -99 -447 -291
-541 -570 -27 -80 -28 -84 -45 -168 -30 -152 -30 -428 0 -570 5 -22 12 -56 17
-75 11 -53 77 -209 110 -262 51 -82 135 -182 187 -223 27 -22 55 -45 61 -50
36 -34 184 -109 280 -141 65 -22 176 -46 271 -59 50 -7 335 -7 395 -1 25 3 72
8 105 11 119 12 324 47 439 75 43 11 80 20 82 20 2 0 4 684 4 1520 l0 1520
-30 -2 c-17 -1 -32 -3 -33 -4z m-680 -1398 c90 -26 218 -80 229 -98 4 -6 7
-939 4 -1160 0 -40 -4 -43 -75 -53 -23 -3 -52 -8 -65 -10 -33 -7 -288 -7 -320
0 -14 2 -38 7 -55 11 -47 10 -126 45 -175 78 -198 134 -290 417 -243 752 39
285 179 460 393 491 19 3 37 7 39 8 10 10 218 -5 268 -19z"/>
<path d="M10204 3779 c-110 -13 -201 -75 -245 -167 -33 -66 -33 -188 -1 -253
50 -102 141 -160 264 -167 102 -6 173 16 238 75 71 63 94 119 94 218 -1 98
-25 155 -90 215 -69 64 -159 91 -260 79z"/>
<path d="M1638 3575 c-2 -1 -57 -6 -123 -9 -66 -4 -136 -9 -155 -11 -19 -2
-58 -6 -87 -9 -28 -3 -80 -10 -115 -16 -34 -7 -68 -13 -75 -14 -7 -1 -16 -6
-20 -10 -9 -9 -11 -2716 -2 -2721 6 -4 189 -7 394 -6 l130 1 -1 472 c-1 260 0
480 2 488 3 13 34 15 196 16 180 1 424 11 437 18 3 2 29 6 56 10 64 8 95 13
175 32 36 9 70 17 75 18 42 9 135 46 214 84 142 68 237 151 316 272 90 140
128 281 129 475 0 400 -174 654 -549 798 -95 37 -281 82 -379 93 -33 3 -69 8
-80 11 -22 5 -533 13 -538 8z m422 -439 c243 -22 383 -74 475 -179 66 -76 88
-139 91 -268 5 -148 -25 -243 -101 -328 -79 -87 -261 -148 -502 -167 -99 -7
-422 -11 -432 -4 -4 3 -8 215 -8 472 l0 466 31 5 c17 2 71 5 121 6 49 1 91 3
92 4 4 4 161 -1 233 -7z"/>
<path d="M6197 2923 c-1 0 -31 -4 -67 -8 -178 -18 -377 -93 -513 -193 -268
-198 -413 -526 -406 -917 5 -262 64 -466 188 -648 94 -137 196 -229 351 -314
224 -124 575 -154 844 -73 140 43 275 117 376 206 167 148 295 390 325 614 3
25 8 59 11 75 7 41 7 259 0 315 -51 394 -252 694 -560 835 -135 62 -229 88
-365 101 -69 6 -181 11 -184 7z m231 -444 c191 -61 329 -263 358 -524 30 -278
-35 -531 -175 -672 -100 -100 -220 -144 -378 -137 -224 10 -384 136 -457 360
-37 113 -45 183 -42 349 5 241 55 384 176 506 88 89 170 125 320 141 38 4 157
-9 198 -23z"/>
<path d="M14528 2925 c-2 -1 -39 -5 -83 -9 -170 -13 -369 -87 -510 -190 -116
-85 -217 -207 -290 -350 -89 -176 -123 -343 -119 -589 1 -110 4 -144 20 -242
5 -32 22 -100 32 -125 3 -8 6 -17 7 -20 30 -119 126 -278 227 -379 115 -114
272 -202 443 -246 83 -22 112 -27 220 -40 48 -6 322 -7 350 -1 11 2 52 7 90
12 39 4 72 8 75 9 25 6 72 15 105 20 22 3 58 10 80 16 22 6 51 13 64 16 14 2
47 13 73 25 44 19 48 24 44 47 -3 14 -8 40 -11 56 -3 17 -7 39 -9 50 -2 11 -7
43 -11 70 -5 28 -9 52 -10 55 0 3 -4 28 -9 55 -13 88 -8 84 -84 59 -77 -26
-238 -59 -330 -68 -75 -8 -248 -8 -317 -1 -205 22 -370 117 -450 259 -34 62
-75 190 -75 236 l0 25 720 0 c396 0 720 2 721 5 0 3 2 14 5 25 6 29 6 262 0
320 -14 128 -20 163 -51 271 -45 153 -112 269 -216 374 -140 142 -336 228
-559 245 -47 4 -97 8 -112 10 -15 1 -29 1 -30 0z m137 -419 c17 -4 59 -21 94
-39 132 -67 217 -208 234 -389 l4 -48 -474 0 -473 0 6 28 c19 83 27 112 46
162 12 30 24 57 27 60 3 3 13 18 21 34 38 73 199 181 287 193 21 3 40 7 42 9
6 5 152 -3 186 -10z"/>
<path d="M18387 2924 c-1 -1 -40 -5 -87 -8 -122 -9 -180 -21 -278 -57 -160
-58 -287 -160 -355 -283 -77 -139 -84 -393 -14 -531 51 -102 143 -190 278
-268 38 -22 233 -104 264 -112 6 -1 17 -5 25 -8 8 -3 47 -18 85 -32 107 -39
246 -111 284 -147 94 -88 91 -228 -7 -296 -25 -17 -76 -33 -157 -47 -35 -6
-249 -6 -313 -1 -39 4 -92 12 -146 22 -45 8 -177 45 -245 68 -41 14 -76 24
-77 23 -3 -4 -84 -382 -84 -393 0 -12 87 -40 245 -78 93 -23 152 -33 250 -42
56 -5 365 -5 395 0 14 2 50 7 80 11 192 21 382 100 484 202 125 124 177 319
141 521 -24 129 -61 199 -150 283 -107 101 -234 167 -515 269 -308 111 -380
167 -382 293 -2 109 61 170 208 200 90 18 317 13 396 -9 9 -3 25 -6 35 -8 52
-10 161 -40 190 -52 18 -8 33 -11 34 -7 0 5 2 15 4 23 16 59 27 108 31 128 3
13 16 69 29 125 14 56 25 105 25 108 0 6 -76 26 -225 59 -70 16 -170 30 -251
36 -105 7 -194 11 -197 8z"/>
<path d="M4397 2915 c-1 -1 -45 -5 -97 -8 -179 -12 -497 -76 -631 -128 l-26
-10 0 -995 0 -994 81 0 c45 -1 158 -1 251 -1 l170 0 3 839 2 840 38 7 c20 4
51 9 67 12 17 3 50 9 75 13 47 9 283 5 335 -5 17 -3 73 -15 125 -25 52 -11 98
-16 101 -12 5 6 34 129 76 332 14 65 2 74 -126 95 -19 3 -43 8 -55 11 -21 5
-33 6 -151 19 -59 6 -233 13 -238 10z"/>
<path d="M16787 2914 c-1 -1 -42 -4 -92 -8 -49 -3 -112 -9 -140 -12 -70 -7
-344 -69 -440 -99 l-80 -24 0 -990 c1 -545 4 -993 7 -996 5 -5 163 -7 413 -6
l90 1 0 836 -1 836 21 8 c57 22 200 37 325 35 101 -2 167 -9 264 -29 70 -15
129 -26 131 -24 4 5 85 381 85 394 0 14 -217 58 -351 70 -62 6 -227 12 -232 8z"/>
<path d="M7523 2856 c3 -7 15 -47 27 -87 64 -219 285 -859 330 -954 5 -11 38
-90 74 -175 104 -250 203 -468 323 -713 l73 -147 42 0 c60 -1 282 -1 344 0
l50 0 82 167 c85 177 162 341 162 348 0 3 16 40 36 82 19 43 39 88 45 101 5
12 13 32 18 45 59 140 124 295 145 350 14 37 37 95 50 130 90 231 286 818 286
856 0 8 -72 11 -260 11 l-259 0 -11 -42 c-54 -206 -119 -411 -276 -873 -25
-71 -49 -138 -54 -147 -6 -10 -10 -22 -10 -28 0 -10 -115 -310 -147 -383 l-16
-37 -25 57 c-13 32 -30 72 -38 88 -94 221 -282 759 -373 1070 -33 115 -73 259
-76 275 -2 13 -41 15 -275 18 -229 2 -271 0 -267 -12z"/>
<path d="M9999 2868 c-1 -2 -2 -472 -3 -1045 l-1 -1043 105 -1 c197 -1 394 2
399 6 2 3 5 473 5 1045 l1 1040 -252 0 c-139 0 -254 -1 -254 -2z"/>
</g>
</svg>
