<?xml version="1.0" standalone="no"?>
<!DOCTYPE svg PUBLIC "-//W3C//DTD SVG 20010904//EN"
 "http://www.w3.org/TR/2001/REC-SVG-20010904/DTD/svg10.dtd">
<svg version="1.0" xmlns="http://www.w3.org/2000/svg"
 width="512.000000pt" height="512.000000pt" viewBox="0 0 512.000000 512.000000"
 preserveAspectRatio="xMidYMid meet">
<metadata>
Created by potrace 1.14, written by Peter Selinger 2001-2017
</metadata>
<g transform="translate(0.000000,512.000000) scale(0.100000,-0.100000)"
fill="#000000" stroke="none">
<path d="M651 5111 c-8 -5 -20 -7 -27 -4 -7 3 -19 1 -26 -3 -7 -5 -17 -9 -23
-10 -56 -12 -67 -16 -145 -52 -30 -14 -75 -39 -100 -56 -56 -38 -180 -157
-180 -173 0 -7 -8 -17 -17 -22 -10 -6 -14 -11 -9 -11 5 0 2 -8 -6 -17 -41 -48
-81 -150 -108 -278 -8 -36 -8 -3852 0 -3882 2 -7 7 -13 11 -13 4 0 6 -9 4 -20
-2 -11 0 -20 6 -20 5 0 8 -3 7 -7 -5 -23 57 -167 86 -200 30 -34 36 -43 30
-43 -4 0 3 -8 14 -19 12 -10 22 -23 22 -30 0 -6 4 -11 8 -11 4 0 29 -20 54
-45 26 -25 51 -45 57 -45 6 0 11 -4 11 -10 0 -5 7 -10 15 -10 8 0 15 -4 15 -8
0 -10 80 -48 92 -45 5 2 8 -1 8 -6 0 -5 26 -17 58 -27 31 -9 62 -20 67 -24 6
-3 26 -8 45 -11 19 -2 904 -4 1966 -4 1615 0 1934 2 1947 14 9 7 24 11 32 7 8
-3 15 -1 15 4 0 6 7 10 17 10 29 0 224 102 231 121 2 5 17 16 33 24 16 9 29
20 29 25 0 5 13 22 28 37 56 54 149 203 135 217 -4 3 -2 6 4 6 10 0 38 86 34
104 -1 4 4 15 11 24 11 12 13 392 13 1969 0 1709 -2 1955 -15 1963 -8 5 -12
12 -8 15 12 13 -56 177 -90 218 -8 9 -12 17 -8 17 4 0 1 6 -6 14 -7 8 -24 28
-38 46 -14 18 -33 40 -44 49 -10 9 -34 31 -52 49 -19 18 -34 30 -34 27 0 -4
-7 0 -15 7 -33 30 -45 38 -55 38 -5 0 -10 5 -10 10 0 6 -5 10 -12 10 -6 0 -34
11 -63 26 -29 14 -62 26 -74 27 -11 1 -21 4 -21 7 0 3 -10 7 -22 7 -13 1 -43
6 -68 12 -57 13 -3809 15 -3829 2z"/>
</g>
</svg>
